<svg width="44" height="45" viewBox="0 0 44 45" fill="none" xmlns="http://www.w3.org/2000/svg">
<g clip-path="url(#clip0_35_252)">
<path d="M25.4321 0.617354C23.0606 1.00632 21.3972 1.85341 20.0303 3.36606C18.8775 4.64533 18.1611 6.14069 17.7577 8.10281C17.6012 8.84618 17.5847 9.29565 17.5518 12.7877L17.5189 16.6601L14.2663 16.6601L11.022 16.6601L11.022 20.593L11.022 24.5259L14.2581 24.5432L17.4859 24.5691L17.5106 34.6563L17.5271 44.7522L21.3972 44.7522L25.2674 44.7522L25.2674 34.639L25.2674 24.5259L28.4788 24.5259C30.2491 24.5259 31.6901 24.5172 31.6901 24.5C31.9125 22.9268 32.6453 16.7725 32.6206 16.7206C32.6042 16.686 30.9408 16.6601 28.9234 16.6601L25.2591 16.6601L25.2838 13.436C25.3085 10.2897 25.3168 10.2119 25.5062 9.71055C25.8932 8.69924 26.7001 8.09418 27.9188 7.92994C28.2482 7.88673 29.5081 7.84351 30.7267 7.84351L32.9253 7.84351L32.9088 4.31687L32.8841 0.798874L31.8137 0.695148C30.0598 0.530917 26.2555 0.479056 25.4321 0.617354Z" fill="white"/>
</g>
<defs>
<clipPath id="clip0_35_252">
<rect width="42.1598" height="44.2559" fill="white" transform="translate(0.893555 0.496338)"/>
</clipPath>
</defs>
</svg>
