<svg width="44" height="45" viewBox="0 0 44 45" fill="none" xmlns="http://www.w3.org/2000/svg">
<g clip-path="url(#clip0_35_247)">
<path d="M10.9768 0.591412C9.60164 0.764286 7.97948 1.32613 6.74433 2.06084C3.54942 3.98839 1.44143 7.34216 1.03795 11.154C0.914434 12.3036 0.914434 32.9449 1.03795 34.0945C1.62259 39.6524 5.80562 44.0434 11.1003 44.6571C12.1955 44.7867 31.859 44.7867 32.9542 44.6571C38.2488 44.0434 42.4319 39.6524 43.0165 34.0945C43.14 32.9449 43.14 12.3036 43.0165 11.154C42.4319 5.59612 38.2488 1.20512 32.9542 0.591412C31.9825 0.479042 11.9237 0.479042 10.9768 0.591412ZM33.8105 3.36604C35.5233 3.85874 36.8408 4.64531 37.9936 5.86408C39.1546 7.0742 39.9039 8.4572 40.3815 10.2551L40.5956 11.0849V22.6243V34.1636L40.3815 34.9934C39.9039 36.7913 39.1546 38.1743 37.9936 39.3844C36.8408 40.6032 35.5233 41.3898 33.8105 41.8911L33.02 42.1158H22.0272H11.0344L10.2439 41.8911C8.53118 41.3898 7.21369 40.6032 6.06088 39.3844C4.89984 38.1743 4.15052 36.7913 3.67293 34.9934L3.45884 34.1636V22.6243V11.0849L3.67293 10.2551C4.15052 8.4572 4.89984 7.0742 6.05265 5.86408C7.41955 4.42922 9.22286 3.47841 11.1168 3.18452C11.3885 3.14131 16.4279 3.11538 22.3154 3.12402L33.02 3.13266L33.8105 3.36604Z" fill="white"/>
<path d="M33.4311 6.26168C31.4219 6.55557 30.055 8.60413 30.5408 10.5922C30.8785 12.0011 31.7348 12.8914 33.0688 13.2544C35.3332 13.8595 37.5565 11.7072 37.1777 9.27834C36.9719 7.92127 36.0249 6.7803 34.7898 6.39134C34.4275 6.27897 33.7605 6.21846 33.4311 6.26168ZM34.3533 9.01903C34.798 9.31291 34.8721 10.0303 34.5016 10.4366C34.1969 10.7651 33.8263 10.8429 33.4476 10.6527C32.8712 10.3674 32.7476 9.57222 33.2088 9.12275C33.5464 8.78565 33.9416 8.75107 34.3533 9.01903Z" fill="white"/>
<path d="M20.4373 10.6527C15.8837 11.3096 12.0383 14.9054 10.8773 19.6162C9.85621 23.7393 11.0008 28.0957 13.9075 31.1469C18.4364 35.901 25.6167 35.901 30.1456 31.1469C34.6745 26.3929 34.6745 18.8556 30.1456 14.1015C27.5436 11.3787 24.0604 10.134 20.4373 10.6527ZM23.344 13.2458C25.3203 13.557 27.0001 14.4473 28.4082 15.9253C31.9572 19.6421 31.9572 25.6063 28.4082 29.3231C24.8674 33.0485 19.1857 33.0485 15.6449 29.3231C12.0959 25.6063 12.0959 19.6421 15.6449 15.9253C17.6953 13.7731 20.5114 12.7877 23.344 13.2458Z" fill="white"/>
</g>
<defs>
<clipPath id="clip0_35_247">
<rect width="42.1598" height="44.2559" fill="white" transform="translate(0.946777 0.496338)"/>
</clipPath>
</defs>
</svg>
