<svg width="43" height="45" viewBox="0 0 43 45" fill="none" xmlns="http://www.w3.org/2000/svg">
<path d="M26.9431 8.16693C26.2926 8.32251 25.8974 8.46946 25.3374 8.76334C23.5012 9.7228 22.1919 11.4256 21.6649 13.5347C21.4838 14.2867 21.4179 15.7129 21.5332 16.4649L21.6073 16.8884L20.8332 16.8366C18.0994 16.6464 15.0857 15.6178 12.533 13.9928C11.125 13.1025 10.0957 12.2381 8.71231 10.7946C7.23837 9.24739 7.37012 9.28197 6.9831 10.3106C6.34083 12.0652 6.28319 13.6557 6.82665 15.2548C7.2466 16.4995 8.13591 17.8565 9.03345 18.6258L9.50281 19.0234H9.23931C8.76172 19.0234 7.71596 18.7555 7.08192 18.4616L6.43964 18.1764V18.6085C6.43964 20.1298 7.20543 21.9709 8.36647 23.2416C9.22284 24.1837 10.0627 24.7456 11.2567 25.1605L11.9155 25.3939L11.2073 25.5062C10.7956 25.5667 10.1451 25.6013 9.65926 25.5754C8.67937 25.5235 8.70408 25.4457 9.29695 26.6386C9.93923 27.9265 10.9932 29.0415 12.2037 29.6898C13.0847 30.1652 13.5459 30.3208 14.4599 30.4591L15.1927 30.5715L14.8716 30.8394C14.6987 30.9863 14.3034 31.2629 13.9988 31.4618C11.6108 32.983 8.95111 33.7178 6.15967 33.614C4.94099 33.5622 4.94099 33.5708 6.15144 34.2537C10.2933 36.5875 14.7645 37.3395 19.4087 36.4751C26.4326 35.1699 32.0155 29.9145 34.3128 22.4723C34.9304 20.4669 35.2598 18.3492 35.2598 16.3871V15.2375L35.7374 14.8658C36.6184 14.1657 37.9936 12.6271 38.5947 11.6503L38.7429 11.417L38.3559 11.5898C37.516 11.9615 35.0786 12.6357 34.9716 12.5234C34.9551 12.5061 35.2021 12.2813 35.5233 12.022C36.4373 11.2873 37.3101 10.034 37.6889 8.90164L37.796 8.58183L36.7996 9.08316C35.8609 9.55857 34.7328 9.98211 33.8435 10.2155L33.4482 10.3106L33.02 9.90431C32.1554 9.08316 31.1097 8.50403 29.9651 8.21879C29.1828 8.01998 27.6842 7.99405 26.9431 8.16693Z" fill="white"/>
</svg>
