<svg width="25" height="22" viewBox="0 0 25 22" fill="none" xmlns="http://www.w3.org/2000/svg">
<g clip-path="url(#clip0_35_235)">
<path d="M11.6211 0.833471C8.73047 1.06738 6.21094 2.0615 4.22363 3.75316C2.36328 5.33623 1.18164 7.37876 0.825195 9.62178C0.786133 9.83898 0.761719 10.4029 0.761719 10.8749C0.761719 11.3469 0.786133 11.9108 0.825195 12.128C1.17188 14.3334 2.34375 16.3759 4.15039 17.9339C5.08301 18.7401 6.04004 19.3332 7.25098 19.8595C8.39844 20.3566 9.58496 20.674 10.8887 20.8453C11.6699 20.9455 13.335 20.9455 14.1113 20.8453C16.7041 20.5069 18.9795 19.5337 20.7764 17.9966C21.7627 17.1528 22.4268 16.3592 23.0469 15.2816C23.6182 14.2916 23.96 13.3602 24.1553 12.2533C24.2725 11.5891 24.2725 10.1606 24.1553 9.49647C23.96 8.38958 23.6182 7.45812 23.0469 6.46818C22.4268 5.39053 21.7676 4.60108 20.7764 3.75316C19.0039 2.23275 16.6553 1.2261 14.1553 0.912834C13.6572 0.85018 12.0508 0.800056 11.6211 0.833471ZM13.4082 2.10744C17.0361 2.40818 20.1709 4.26693 21.7578 7.05296C24.0137 11.0211 22.4658 15.7786 18.1152 18.2388C15.376 19.7843 11.8604 20.1018 8.79883 19.0784C5.53223 17.9882 3.11523 15.5405 2.41699 12.6167C1.66016 9.42546 3.0127 6.1925 6.01563 4.0539C8.00293 2.63374 10.8301 1.89024 13.4082 2.10744Z" fill="white"/>
<path d="M8.75958 5.00208C8.15411 5.16499 7.24591 5.7247 6.78693 6.21758C6.43536 6.60186 6.03986 7.26599 5.90314 7.72128C5.74689 8.22669 5.72247 9.10385 5.84943 9.62179C6.03497 10.3987 6.36212 10.9501 7.08478 11.7186C8.4715 13.1806 9.99005 14.4754 11.7674 15.7034C12.7733 16.401 13.6522 16.7017 14.8191 16.7519C16.6111 16.8229 18.1102 16.1378 19.1111 14.7887C19.2918 14.5422 19.4725 14.2499 19.5115 14.1454C19.6385 13.7904 19.6141 13.7653 18.2225 12.5749L16.9627 11.5014H16.7088C16.3719 11.5014 15.9959 11.6643 15.493 12.0277C14.99 12.3953 14.8582 12.4496 14.6043 12.3869C14.3797 12.3285 13.4861 11.8272 12.9783 11.4722C12.3924 11.0628 11.7088 10.4154 11.3035 9.89747C10.7469 9.17904 10.7518 9.06208 11.3621 8.4606C11.8943 7.93848 12.0701 7.49155 11.8797 7.14904C11.826 7.05297 11.3279 6.61021 10.5955 6.00873C9.24786 4.89766 9.21368 4.88095 8.75958 5.00208ZM9.93146 7.85077C9.35528 8.43136 9.16974 8.99943 9.35528 9.60091C9.57501 10.3319 10.8104 11.7144 11.9334 12.4914C12.4656 12.8548 13.2664 13.31 13.7449 13.5105C14.5897 13.8698 15.4295 13.7444 16.2108 13.143L16.4647 12.9508L17.1629 13.5481L17.866 14.1496L17.783 14.2749C17.6219 14.5255 16.9822 15.0268 16.6258 15.1855C15.615 15.6324 14.3309 15.5948 13.3445 15.0853C12.6024 14.701 10.7713 13.3393 9.80939 12.4579C8.05646 10.8456 7.5047 10.2024 7.29962 9.51737C7.20685 9.19992 7.20685 8.51073 7.3045 8.15986C7.46564 7.56256 7.90997 6.98614 8.48126 6.61439L8.80841 6.40136L9.50177 6.99449L10.1951 7.58762L9.93146 7.85077Z" fill="white"/>
</g>
<defs>
<clipPath id="clip0_35_235">
<rect width="25" height="21.386" fill="white" transform="translate(0 0.181854)"/>
</clipPath>
</defs>
</svg>
