<svg width="43" height="32" viewBox="0 0 43 32" fill="none" xmlns="http://www.w3.org/2000/svg">
<path d="M14.6983 0.701607C11.0422 0.891769 5.21233 1.43632 4.07599 1.69563C2.52794 2.05003 1.05399 3.59725 0.666981 5.27413C0.378779 6.52747 0 12.7077 0 16.2084C0 19.7091 0.378779 25.8894 0.666981 27.1427C1.05399 28.8196 2.52794 30.3582 4.07599 30.7212C4.66063 30.8509 7.90496 31.2139 10.3341 31.4214C17.2344 32.0005 24.8265 32.0005 31.8504 31.4214C34.2548 31.2226 37.4827 30.8595 38.0838 30.7212C39.6401 30.3582 41.1058 28.8196 41.4928 27.1427C41.781 25.8894 42.1598 19.7091 42.1598 16.2084C42.1598 12.7077 41.781 6.52747 41.4928 5.27413C41.1058 3.59725 39.6318 2.05867 38.0838 1.69563C36.8816 1.41903 31.2246 0.900414 27.2145 0.692965C24.1266 0.537376 17.7779 0.537376 14.6983 0.701607ZM22.8832 12.5349C25.7405 14.5315 28.0708 16.1825 28.0708 16.2084C28.0708 16.2516 17.7532 23.4864 17.6132 23.5383C17.5721 23.5556 17.5391 20.5303 17.5391 16.2084C17.5391 11.8866 17.5721 8.86127 17.6132 8.87856C17.6544 8.88721 20.0259 10.5382 22.8832 12.5349Z" fill="white"/>
</svg>
