<svg width="25" height="25" viewBox="0 0 25 25" fill="none" xmlns="http://www.w3.org/2000/svg">
<path d="M11.6211 0.761721C8.73047 1.03516 6.21094 2.19727 4.22363 4.17481C2.36328 6.02539 1.18164 8.41309 0.825195 11.0352C0.786133 11.2891 0.761719 11.9482 0.761719 12.5C0.761719 13.0518 0.786133 13.7109 0.825195 13.9648C1.17188 16.543 2.34375 18.9307 4.15039 20.752C5.08301 21.6943 6.04004 22.3877 7.25098 23.0029C8.39844 23.584 9.58496 23.9551 10.8887 24.1553C11.6699 24.2725 13.335 24.2725 14.1113 24.1553C16.7041 23.7598 18.9795 22.6221 20.7764 20.8252C21.7627 19.8389 22.4268 18.9111 23.0469 17.6514C23.6182 16.4941 23.96 15.4053 24.1553 14.1113C24.2725 13.335 24.2725 11.665 24.1553 10.8887C23.96 9.59473 23.6182 8.50586 23.0469 7.34863C22.4268 6.08887 21.7676 5.16602 20.7764 4.17481C19.0039 2.39746 16.6553 1.22071 14.1553 0.854494C13.6572 0.781252 12.0508 0.722658 11.6211 0.761721ZM13.4082 2.25098C17.0361 2.60254 20.1709 4.77539 21.7578 8.03223C24.0137 12.6709 22.4658 18.2324 18.1152 21.1084C15.376 22.915 11.8604 23.2861 8.79883 22.0898C5.53223 20.8154 3.11524 17.9541 2.41699 14.5361C1.66016 10.8057 3.0127 7.02637 6.01563 4.52637C8.00293 2.86621 10.8301 1.99707 13.4082 2.25098Z" fill="black" fill-opacity="0.8"/>
<path d="M8.75983 5.63477C8.15436 5.8252 7.24615 6.4795 6.78717 7.05567C6.43561 7.50489 6.0401 8.28126 5.90338 8.81348C5.74713 9.4043 5.72272 10.4297 5.84967 11.0352C6.03522 11.9434 6.36237 12.5879 7.08502 13.4863C8.47174 15.1953 9.99029 16.709 11.7676 18.1445C12.7735 18.96 13.6524 19.3115 14.8194 19.3701C16.6114 19.4531 18.1104 18.6523 19.1114 17.0752C19.292 16.7871 19.4727 16.4453 19.5118 16.3232C19.6387 15.9082 19.6143 15.8789 18.2227 14.4873L16.9629 13.2324H16.709C16.3721 13.2324 15.9962 13.4229 15.4932 13.8477C14.9903 14.2773 14.8585 14.3408 14.6046 14.2676C14.3799 14.1992 13.4864 13.6133 12.9786 13.1982C12.3926 12.7197 11.709 11.9629 11.3038 11.3574C10.7471 10.5176 10.752 10.3809 11.3624 9.67774C11.8946 9.06739 12.0704 8.54493 11.8799 8.14454C11.8262 8.03223 11.3282 7.51466 10.5958 6.81153C9.24811 5.5127 9.21393 5.49317 8.75983 5.63477ZM9.9317 8.96485C9.35553 9.64356 9.16998 10.3076 9.35553 11.0107C9.57526 11.8652 10.8106 13.4815 11.9337 14.3897C12.4659 14.8145 13.2667 15.3467 13.7452 15.5811C14.5899 16.001 15.4297 15.8545 16.211 15.1514L16.4649 14.9268L17.1631 15.625L17.8663 16.3281L17.7833 16.4746C17.6221 16.7676 16.9825 17.3535 16.626 17.5391C15.6153 18.0615 14.3311 18.0176 13.3448 17.4219C12.6026 16.9727 10.7715 15.3809 9.80963 14.3506C8.0567 12.4658 7.50494 11.7139 7.29987 10.9131C7.20709 10.542 7.20709 9.73633 7.30475 9.32618C7.46588 8.62794 7.91022 7.95411 8.48151 7.51954L8.80865 7.27051L9.50201 7.96387L10.1954 8.65723L9.9317 8.96485Z" fill="black" fill-opacity="0.8"/>
</svg>
